<svg id="Capa_1" enable-background="new 0 0 512 512" height="512" viewBox="0 0 512 512" width="512" xmlns="http://www.w3.org/2000/svg"><g><g><g><g><g><g><g><circle cx="256" cy="256" fill="#4a7aff" r="256"/></g></g></g></g></g></g><path d="m512 256c0-7.722-.342-15.365-1.011-22.914l-99.989-99.988-19.755 26.153-97.694-97.694-87.495 85.626 34.119 34.119-4.286 5.684-53.889-53.888-34.951 271.05 107.85 107.849c.367.002.734.003 1.102.003 141.384 0 255.999-114.615 255.999-256z" fill="#0053bf"/><g><path d="m256 449.011c-85.467 0-155-69.532-155-155v-85.279l40.783-25.993 40.217 26.002v85.27c0 40.804 33.196 74 74 74s74-33.196 74-74v-85.272l40.239-24.695 40.761 24.697v85.269c0 85.468-69.532 155.001-155 155.001z" fill="#fe8205"/></g><g><path d="m368.739 182.217-38.739 26.523v85.271c0 40.804-33.196 74-74 74v81c85.468 0 155-69.532 155-155v-85.272z" fill="#fa5d0f"/></g><g><path d="m101 133.098h81v75.643h-81z" fill="#fff"/></g><g><path d="m330 133.098h81v75.643h-81z" fill="#e9edf5"/></g><g><g><path d="m235.74 215.136c-5.092 0-10.201-1.797-14.3-5.452-8.863-7.902-9.643-21.492-1.741-30.356l22.048-24.73h-19.467c-8.703 0-16.547-5.247-19.871-13.29-3.323-8.043-1.47-17.297 4.695-23.44l56.298-56.098c8.41-8.381 22.024-8.357 30.405.054 8.382 8.411 8.357 22.024-.054 30.406l-19.438 19.368h15.402c8.473 0 16.154 4.976 19.619 12.707 3.466 7.731 2.067 16.777-3.571 23.101l-53.971 60.538c-4.245 4.763-10.137 7.192-16.054 7.192z" fill="#ffce00"/></g></g></g><g><path d="m309.338 124.305c-3.465-7.731-11.146-12.707-19.619-12.707h-15.402l19.438-19.368c8.411-8.381 8.436-21.994.054-30.406-8.381-8.411-21.995-8.435-30.405-.054l-7.42 7.394v134.083l49.784-55.842c5.638-6.323 7.036-15.369 3.57-23.1z" fill="#fdba12"/></g></svg>